{
  "asset": {
    "generator": "Khronos glTF Blender I/O v1.5.17",
    "version": "2.0"
  },
  "scene": 0,
  "scenes": [
    {
      "name": "Scene",
      "nodes": [
        0
      ]
    }
  ],
  "nodes": [
    {
      "mesh": 0,
      "name": "Vase_01"
    }
  ],
  "materials": [
    {
      "name": "Material_0",
      "pbrMetallicRoughness": {
        "baseColorFactor": [
          0.24396538734436035,
          0.9019607305526733,
          0.6878073811531067,
          1
        ],
        "metallicFactor": 0,
        "roughnessFactor": 0
      }
    }
  ],
  "meshes": [
    {
      "name": "Mesh_0",
      "primitives": [
        {
          "attributes": {
            "POSITION": 0,
            "NORMAL": 1,
            "TEXCOORD_0": 2
          },
          "indices": 3,
          "material": 0
        }
      ]
    }
  ],
  "accessors": [
    {
      "bufferView": 0,
      "componentType": 5126,
      "count": 1601,
      "max": [
        5.202098846435547,
        30,
        5.202098846435547
      ],
      "min": [
        -5.202098846435547,
        0,
        -5.202098846435547
      ],
      "type": "VEC3"
    },
    {
      "bufferView": 1,
      "componentType": 5126,
      "count": 1601,
      "type": "VEC3"
    },
    {
      "bufferView": 2,
      "componentType": 5126,
      "count": 1601,
      "type": "VEC2"
    },
    {
      "bufferView": 3,
      "componentType": 5123,
      "count": 6768,
      "type": "SCALAR"
    }
  ],
  "bufferViews": [
    {
      "buffer": 0,
      "byteLength": 19212,
      "byteOffset": 0
    },
    {
      "buffer": 0,
      "byteLength": 19212,
      "byteOffset": 19212
    },
    {
      "buffer": 0,
      "byteLength": 12808,
      "byteOffset": 38424
    },
    {
      "buffer": 0,
      "byteLength": 13536,
      "byteOffset": 51232
    }
  ],
  "buffers": [
    {
      "uri": "VaseBlue_data.bin",
      "byteLength": 64768
    }
  ]
}